<?xml version="1.0" standalone="no"?>
<!DOCTYPE svg PUBLIC "-//W3C//DTD SVG 20010904//EN"
 "http://www.w3.org/TR/2001/REC-SVG-20010904/DTD/svg10.dtd">
<svg version="1.0" xmlns="http://www.w3.org/2000/svg"
 width="700.000000pt" height="700.000000pt" viewBox="0 0 700.000000 700.000000"
 preserveAspectRatio="xMidYMid meet">
<metadata>
Created by potrace 1.11, written by Peter Selinger 2001-2013
</metadata>
<g transform="translate(0.000000,700.000000) scale(0.100000,-0.100000)"
fill="#000000" stroke="none">
<path d="M1097 6342 c-52 -56 -153 -286 -172 -393 -3 -16 -12 -57 -19 -91 -16
-69 -24 -116 -32 -193 -3 -27 -8 -53 -10 -56 -22 -36 -22 -734 1 -843 2 -12 6
-41 9 -66 54 -505 253 -1099 510 -1525 37 -60 72 -119 79 -130 7 -11 15 -22
18 -25 3 -3 24 -33 47 -67 72 -107 200 -263 303 -370 l60 -62 -912 -911 -911
-911 1263 4 c695 2 1273 6 1284 9 11 3 54 9 95 12 41 4 122 14 180 22 58 8
123 17 145 20 22 3 46 7 54 10 8 3 30 7 50 10 31 5 186 38 231 49 193 48 519
158 685 231 22 10 42 18 45 19 20 4 257 124 355 180 434 247 788 545 1072 904
43 54 84 107 90 117 7 11 30 44 52 75 168 243 308 545 391 839 l32 115 46 19
c26 11 67 28 92 39 25 11 47 21 50 22 8 3 46 19 330 145 151 67 299 131 328
142 28 11 52 24 52 28 0 4 -44 26 -97 48 -91 38 -486 210 -578 251 -22 10 -65
29 -95 41 -66 28 -76 38 -84 93 -10 63 -54 203 -87 276 -39 85 -145 242 -211
312 -176 185 -382 301 -633 353 -91 20 -134 23 -250 21 -77 -2 -156 -6 -175
-10 -173 -32 -358 -111 -504 -216 -62 -44 -205 -179 -468 -441 l-379 -377
-1153 1154 -1154 1153 -25 -26z m4118 -2163 c55 -24 115 -80 143 -132 36 -69
38 -180 5 -243 -34 -64 -71 -103 -127 -132 -42 -22 -64 -27 -126 -26 -124 0
-204 54 -257 173 -60 136 14 305 158 361 51 20 157 20 204 -1z"/>
</g>
</svg>
